<svg xmlns="http://www.w3.org/2000/svg" viewBox="0 0 88.18 66.86"><defs><style>.cls-1{fill:#131313;}</style></defs><title>Logo</title><g id="Ebene_2" data-name="Ebene 2"><g id="Ebene_1-2" data-name="Ebene 1"><path class="cls-1" d="M9.3.12v1l-.9.17V8.53H6.72L3.33,2.87h0V7.35l.9.17v1H.71v-1l.89-.17v-6L.71,1.14v-1H3.29l3.4,5.66h0V1.31l-.9-.17v-1H9.3Z"/><path class="cls-1" d="M17.54,4.39a4.52,4.52,0,0,1-1.06,3.06,3.51,3.51,0,0,1-2.77,1.2A3.48,3.48,0,0,1,11,7.45,4.51,4.51,0,0,1,9.91,4.39V4.26a4.5,4.5,0,0,1,1.05-3A3.43,3.43,0,0,1,13.71,0a3.5,3.5,0,0,1,2.77,1.21,4.51,4.51,0,0,1,1.06,3.05Zm-1.68-.14a3.77,3.77,0,0,0-.55-2.12,1.79,1.79,0,0,0-1.6-.81,1.77,1.77,0,0,0-1.59.81,3.83,3.83,0,0,0-.52,2.12v.14a3.79,3.79,0,0,0,.53,2.14,1.76,1.76,0,0,0,1.58.81,1.8,1.8,0,0,0,1.61-.81,3.79,3.79,0,0,0,.54-2.14Z"/><path class="cls-1" d="M25.46.12V2.36H24.17l-.07-.94H22.55V7.35l.9.17v1H20v-1l.9-.17V1.42H19.32l-.07.94H18V.12Z"/><path class="cls-1" d="M28.83,7.52l.6-.08L32,.12h1.72l2.55,7.32.6.08v1H34v-1l.58-.1L34.2,6.26H31.48l-.37,1.16.58.1v1H28.83ZM31.88,5h1.93l-1-3h0Z"/><path class="cls-1" d="M46,.12v1l-.9.17V8.53H43.42L40,2.87h0V7.35l.9.17v1H37.41v-1l.9-.17v-6l-.9-.17v-1H40l3.4,5.66h0V1.31l-.9-.17v-1H46Z"/><path class="cls-1" d="M54.24,4.39a4.47,4.47,0,0,1-1.06,3.06,3.77,3.77,0,0,1-5.52,0,4.51,4.51,0,0,1-1-3.06V4.26a4.5,4.5,0,0,1,1-3A3.45,3.45,0,0,1,50.41,0a3.5,3.5,0,0,1,2.77,1.21,4.46,4.46,0,0,1,1.06,3.05Zm-1.68-.14A3.77,3.77,0,0,0,52,2.13a1.82,1.82,0,0,0-1.61-.81,1.77,1.77,0,0,0-1.59.81,3.91,3.91,0,0,0-.52,2.12v.14a3.87,3.87,0,0,0,.53,2.14,1.77,1.77,0,0,0,1.59.81A1.79,1.79,0,0,0,52,6.53a3.79,3.79,0,0,0,.54-2.14Z"/><path class="cls-1" d="M62.17.12V2.36h-1.3l-.07-.94H59.25V7.35l.91.17v1H56.67v-1l.9-.17V1.42H56L56,2.36H54.67V.12Z"/><path class="cls-1" d="M62.72,1.14v-1H66.2v1l-.9.17V3.74h3.43V1.31l-.9-.17v-1h3.48v1l-.9.17v6l.9.17v1H67.83v-1l.9-.17V5H65.3V7.35l.9.17v1H62.72v-1l.89-.17v-6Z"/><path class="cls-1" d="M77.4,4.84H74.55v2.4h2.71l.08-1h1.28v2.3H72v-1l.9-.17v-6L72,1.14v-1h6.65V2.43h-1.3l-.07-1H74.55V3.54H77.4Z"/><path class="cls-1" d="M83.3.12a3.5,3.5,0,0,1,2.25.66,2.19,2.19,0,0,1,.81,1.81A1.8,1.8,0,0,1,86,3.69a2.4,2.4,0,0,1-1,.76,1.75,1.75,0,0,1,1.07.73,2.28,2.28,0,0,1,.33,1.27v.42a.79.79,0,0,0,.11.44.48.48,0,0,0,.36.18l.21,0v1h-.87a1.38,1.38,0,0,1-1.16-.44,1.83,1.83,0,0,1-.34-1.15V6.46a1.37,1.37,0,0,0-.32-1,1.24,1.24,0,0,0-.93-.37H82.1V7.35l.9.17v1H79.52v-1l.9-.17v-6l-.9-.17v-1H83.3ZM82.1,3.83h1.17a1.61,1.61,0,0,0,1.06-.3,1.09,1.09,0,0,0,.35-.87,1.21,1.21,0,0,0-.35-.9,1.41,1.41,0,0,0-1-.34H82.1Z"/><path class="cls-1" d="M18.7,22.45H15.31l-.47-3a4.65,4.65,0,0,0-1.69-1.06A6.79,6.79,0,0,0,10.73,18a5.38,5.38,0,0,0-4.57,2.15,9.27,9.27,0,0,0-1.6,5.63v.8a9.26,9.26,0,0,0,1.6,5.64,5.24,5.24,0,0,0,4.5,2.17A7.47,7.47,0,0,0,13.12,34a4.14,4.14,0,0,0,1.72-1.06l.47-3H18.7v4.5a9.62,9.62,0,0,1-3.5,2.54,11.72,11.72,0,0,1-4.78,1,9.76,9.76,0,0,1-7.5-3.17A11.55,11.55,0,0,1,0,26.55v-.77a11.62,11.62,0,0,1,2.91-8.14,9.7,9.7,0,0,1,7.51-3.19,11.48,11.48,0,0,1,4.77,1A10.21,10.21,0,0,1,18.7,18Z"/><path class="cls-1" d="M41.59,26.33a12.05,12.05,0,0,1-2.86,8.26,9.45,9.45,0,0,1-7.48,3.27,9.41,9.41,0,0,1-7.45-3.27A12.13,12.13,0,0,1,21,26.33V26a12.17,12.17,0,0,1,2.83-8.25,9.35,9.35,0,0,1,7.43-3.28,9.52,9.52,0,0,1,7.5,3.28A12.1,12.1,0,0,1,41.59,26ZM37.05,26a10.15,10.15,0,0,0-1.47-5.73A4.89,4.89,0,0,0,31.23,18,4.74,4.74,0,0,0,27,20.2,10.4,10.4,0,0,0,25.53,26v.38A10.52,10.52,0,0,0,27,32.12a4.77,4.77,0,0,0,4.29,2.19,4.85,4.85,0,0,0,4.34-2.19,10.35,10.35,0,0,0,1.46-5.79Z"/><path class="cls-1" d="M64.22,26.33a12.05,12.05,0,0,1-2.86,8.26,9.47,9.47,0,0,1-7.48,3.27,9.38,9.38,0,0,1-7.45-3.27,12.14,12.14,0,0,1-2.84-8.26V26a12.22,12.22,0,0,1,2.83-8.25,9.38,9.38,0,0,1,7.44-3.28,9.5,9.5,0,0,1,7.49,3.28A12.1,12.1,0,0,1,64.22,26ZM59.67,26a10.15,10.15,0,0,0-1.47-5.73A4.87,4.87,0,0,0,53.86,18a4.75,4.75,0,0,0-4.29,2.18A10.48,10.48,0,0,0,48.16,26v.38a10.43,10.43,0,0,0,1.43,5.79,4.77,4.77,0,0,0,4.29,2.19,4.87,4.87,0,0,0,4.34-2.19,10.35,10.35,0,0,0,1.45-5.79Z"/><path class="cls-1" d="M66.05,34.8l2.42-.47V18l-2.42-.47V14.78h9.29v2.75L73,18v6.08h2l4.37-6.36-1.34-.19V14.78h9v2.75L84.59,18,79,25.42l6.28,9,2.28.39v2.73h-9V34.8l1.4-.19L75.58,28H73v6.3l2.31.47v2.73H66.05Z"/><path class="cls-1" d="M10.36,43.78a10.88,10.88,0,0,1,6.27,1.56A5.33,5.33,0,0,1,18.88,50,4.93,4.93,0,0,1,18,52.84a5,5,0,0,1-2.43,1.86,4.8,4.8,0,0,1,3.07,1.88,5.55,5.55,0,0,1,1,3.33,5.88,5.88,0,0,1-2.16,4.94,9.74,9.74,0,0,1-6.11,1.68H.25V63.8l2.43-.47V47L.25,46.53V43.78H10.36ZM7.24,53.31h3.28a4.54,4.54,0,0,0,2.81-.75,2.58,2.58,0,0,0,1-2.19,2.72,2.72,0,0,0-1-2.32,4.91,4.91,0,0,0-3-.75H7.24Zm0,3.16V63h4.2a4.23,4.23,0,0,0,2.77-.79,2.85,2.85,0,0,0,.95-2.33,3.66,3.66,0,0,0-.81-2.56,3.32,3.32,0,0,0-2.56-.88Z"/><path class="cls-1" d="M42.21,55.33a12.1,12.1,0,0,1-2.86,8.26,9.47,9.47,0,0,1-7.49,3.27,9.37,9.37,0,0,1-7.44-3.27,12.14,12.14,0,0,1-2.84-8.26V55a12.22,12.22,0,0,1,2.83-8.25,9.38,9.38,0,0,1,7.44-3.28,9.5,9.5,0,0,1,7.49,3.28A12.1,12.1,0,0,1,42.21,55ZM37.66,55a10.15,10.15,0,0,0-1.47-5.73A4.88,4.88,0,0,0,31.85,47a4.75,4.75,0,0,0-4.29,2.18A10.48,10.48,0,0,0,26.15,55v.38a10.43,10.43,0,0,0,1.43,5.79,4.77,4.77,0,0,0,4.28,2.19,4.88,4.88,0,0,0,4.35-2.19,10.35,10.35,0,0,0,1.45-5.79Z"/><path class="cls-1" d="M64.83,55.33A12.05,12.05,0,0,1,62,63.59a9.45,9.45,0,0,1-7.48,3.27A9.39,9.39,0,0,1,47,63.59a12.13,12.13,0,0,1-2.83-8.26V55A12.17,12.17,0,0,1,47,46.73a9.35,9.35,0,0,1,7.43-3.28A9.52,9.52,0,0,1,62,46.73,12.1,12.1,0,0,1,64.83,55ZM60.29,55a10.15,10.15,0,0,0-1.47-5.73A4.89,4.89,0,0,0,54.47,47a4.77,4.77,0,0,0-4.29,2.18A10.48,10.48,0,0,0,48.77,55v.38a10.52,10.52,0,0,0,1.43,5.79,4.77,4.77,0,0,0,4.29,2.19,4.86,4.86,0,0,0,4.34-2.19,10.35,10.35,0,0,0,1.46-5.79Z"/><path class="cls-1" d="M66.66,63.8l2.42-.47V47l-2.42-.47V43.78H76v2.75L73.65,47v6.08h2L80,46.72l-1.34-.19V43.78h9v2.75L85.21,47l-5.6,7.47,6.29,9,2.28.39v2.73h-9V63.8l1.41-.19L76.19,57H73.65v6.3L76,63.8v2.73h-9.3Z"/></g></g></svg>