<svg xmlns="http://www.w3.org/2000/svg" viewBox="0 0 139.44 118.78"><defs><style>.cls-1{fill:#1d1d1b;}</style></defs><title>Icon</title><g id="Ebene_2" data-name="Ebene 2"><g id="Ebene_1-2" data-name="Ebene 1"><path class="cls-1" d="M107.7,9.56H80V0H59.44V9.56H31.74A21.53,21.53,0,0,0,10.28,31V46.57H129.16V31A21.53,21.53,0,0,0,107.7,9.56Zm7.46,23H24.28V31a7.56,7.56,0,0,1,7.46-7.46h76A7.56,7.56,0,0,1,115.16,31Z"/><path class="cls-1" d="M139.44,54.43H0v14H10.28V84.16A34.72,34.72,0,0,0,44.9,118.78H94.54a34.72,34.72,0,0,0,34.62-34.62V68.43h10.28ZM115.16,84.16a20.64,20.64,0,0,1-20.62,20.62H44.9A20.64,20.64,0,0,1,24.28,84.16V68.43h90.88Z"/></g></g></svg>